<svg width="80" height="80" viewBox="0 0 80 80" fill="none" xmlns="http://www.w3.org/2000/svg">
<mask id="mask0_80_324" style="mask-type:alpha" maskUnits="userSpaceOnUse" x="0" y="0" width="80" height="80">
<circle cx="40" cy="40" r="40" fill="#EFF3F5"/>
</mask>
<g mask="url(#mask0_80_324)">
<circle cx="40" cy="40" r="40" fill="#EFF3F5"/>
<path d="M11 47.0002C15 11.0002 31 6.0002 38.5 8.0002L40.5 64.5C38.1667 70.5 33.1 81.9 31.5 79.5C34.5 76 28.3333 68.8333 26 64.5C26 67 28 66 28 73.5C28 79.5 22 78.3333 19 77C23.5 74.5 20.5 73.5 17.5 67.5C14.5 61.5 11 55 11 47.0002Z" fill="#FEEBA9" stroke="black" stroke-width="2" stroke-linecap="round" stroke-linejoin="round"/>
<path d="M68.5 48.3762C64.5 12.3762 48.5 7.37618 41 9.37618L39 65.876C41.3333 71.876 46.4 83.276 48 80.876C45 77.376 51.1667 70.2093 53.5 65.876C53.5 68.376 51.5 67.376 51.5 74.876C51.5 80.876 57.5 79.7093 60.5 78.376C56 75.876 59 74.876 62 68.876C65 62.876 68.5 56.376 68.5 48.3762Z" fill="#FEEBA9" stroke="black" stroke-width="2" stroke-linecap="round" stroke-linejoin="round"/>
<path d="M34.5 73.9998C34.9 67.9998 33.3333 63.4998 32.5 61.9998C38.6667 60.6665 50.3 58.7998 47.5 61.9998C44.7 65.1998 51 76.6665 54.5 81.9998H29C30.6667 81.8331 34.1 79.9998 34.5 73.9998Z" fill="#FAEDCE" stroke="black" stroke-width="2" stroke-linecap="round" stroke-linejoin="round"/>
<path d="M70.5 31.0002C68.5 26.6002 64.6667 31.5002 63 34.5002C61 38.5001 57.9 46.4 61.5 46C66 45.5 73 36.5002 70.5 31.0002Z" fill="#FAEDCE" stroke="black" stroke-width="2" stroke-linecap="round" stroke-linejoin="round"/>
<path d="M9.52487 31.7551C11.5249 27.3551 15.3582 32.2551 17.0249 35.2551C19.0249 39.255 22.1249 47.1549 18.5249 46.7549C14.0249 46.2549 7.02487 37.2551 9.52487 31.7551Z" fill="#FAEDCE" stroke="black" stroke-width="2" stroke-linecap="round" stroke-linejoin="round"/>
<path d="M62 25.4998C58 6.49983 32 4.00003 21 17.9998C7 37.5 30.5 65 39.5 64.5C48.5 64 67.0527 49.5 62 25.4998Z" fill="#FAEDCE" stroke="black" stroke-width="2"/>
<path d="M35 36.8751C30.7517 30.8791 23.8966 31.6513 21 32.7869C22.2874 35.5124 26.8897 40.1457 35 36.8751Z" stroke="black" stroke-width="1.5" stroke-linejoin="round"/>
<path d="M42 36.8751C46.5517 30.8791 53.8966 31.6513 57 32.7869C55.6207 35.5124 50.6897 40.1457 42 36.8751Z" stroke="black" stroke-width="1.5" stroke-linejoin="round"/>
<ellipse cx="49.5" cy="35" rx="3.5" ry="3" fill="black"/>
<ellipse cx="27.5" cy="35" rx="3.5" ry="3" fill="black"/>
<path d="M38 41.5C36.5 44.5 32.5 44 32.5 45.5C32.5 47 38.5 49 39.5 49" stroke="black" stroke-width="2" stroke-linecap="round" stroke-linejoin="round"/>
<path d="M42.8741 31.2418C45.8407 29.6857 52.8525 27.1089 57.1669 29.2504" stroke="black" stroke-width="2" stroke-linecap="round" stroke-linejoin="round"/>
<path d="M34.1394 30.755C31.1521 29.239 24.1062 26.7569 19.821 28.9563" stroke="black" stroke-width="2" stroke-linecap="round" stroke-linejoin="round"/>
<path d="M29 50C30.1667 52 33.5819 55.5 38 55.5C44 55.5 46.8333 52.3333 48.5 51" stroke="black" stroke-width="2" stroke-linecap="round" stroke-linejoin="round"/>
<ellipse cx="52.5" cy="43.5" rx="4.5" ry="2.5" fill="#FACED9"/>
<ellipse cx="25.5" cy="43.5" rx="4.5" ry="2.5" fill="#FACED9"/>
<path d="M15.5 21.9997C17.1 13.1997 28.5 4.49993 40 7.99973C64.4 7.59973 65.8333 25.1667 62.5 33.5C62.5 29.9 57.5 24.5 55.5 21.9997C55.5 24.3997 51.5 28.3333 50.5 29C49.7 27.4 47.1667 23.3331 45 22.4997C44.6 24.8997 41.5 28.1664 40 29.4997C40 26.6997 36.5 24.6666 34.5 22.9999C33.7 24.9999 29.5 28 29.5 29C25.9 27.4 25.1667 24.1666 23.5 22.9999C21 25.5 16.6667 30.3333 17 33.5C14.5 31.5 14.7727 26 15.5 21.9997Z" fill="#FEEBA9" stroke="black" stroke-width="2" stroke-linecap="round" stroke-linejoin="round"/>
<circle cx="32.5" cy="75.5" r="2" fill="#FBFBFB" stroke="black"/>
<circle cx="35.5" cy="77.5" r="2" fill="#FBFBFB" stroke="black"/>
<circle cx="39.5" cy="78.5" r="2" fill="#FBFBFB" stroke="black"/>
<circle cx="43.5" cy="77.5" r="2" fill="#FBFBFB" stroke="black"/>
<circle cx="47.5" cy="76.5" r="2" fill="#FBFBFB" stroke="black"/>
<circle cx="51.5" cy="74.5" r="2" fill="#FBFBFB" stroke="black"/>
<circle cx="62.5" cy="45.5" r="2" fill="#FBFBFB" stroke="black"/>
<circle cx="17.5" cy="46.5" r="2" fill="#FBFBFB" stroke="black"/>
</g>
</svg>
