<svg width="80" height="80" viewBox="0 0 80 80" fill="none" xmlns="http://www.w3.org/2000/svg">
<mask id="mask0_80_283" style="mask-type:alpha" maskUnits="userSpaceOnUse" x="0" y="0" width="80" height="80">
<circle cx="40" cy="40" r="40" fill="#EEEEEE"/>
</mask>
<g mask="url(#mask0_80_283)">
<circle cx="40" cy="40" r="40" fill="#EFF3F5"/>
<path d="M29.7244 79.2636C30.3425 74.9369 28.9517 67.159 28.1791 63.8109L46.7224 62.2656C45.4862 66.5924 49.2979 75.4005 51.3582 79.2636C43.8894 81.0665 29.1063 83.5904 29.7244 79.2636Z" fill="#FFE9C8" stroke="black" stroke-width="2"/>
<path d="M25.8612 66.9014C26.4793 66.9014 35.9055 77.2032 40.5413 82.3541L29.7244 83.8994L18.1348 72.3098C20.4527 70.507 25.2431 66.9014 25.8612 66.9014Z" fill="#FBFBFB" stroke="black" stroke-width="2" stroke-linejoin="round"/>
<path d="M52.1309 66.9014C51.5127 66.9014 42.0866 77.2032 37.4508 82.3541L48.2677 83.8994L59.8572 72.3098C57.5393 70.507 52.749 66.9014 52.1309 66.9014Z" fill="#FBFBFB" stroke="black" stroke-width="2" stroke-linejoin="round"/>
<path d="M17.3256 36.1286C17.7088 30.0672 23.3424 14.1137 42.2479 13.4831C64.6461 13.4384 60.2742 34.4617 62.2794 48.951C63.9446 60.9834 39.588 67.1124 23.7696 63.1913C7.95128 59.2702 16.9424 42.1901 17.3256 36.1286Z" fill="#FFE9C8" stroke="black" stroke-width="2"/>
<path d="M36.073 55.3269C31.2779 55.7054 26.3837 52.6452 24.536 51.0679C25.6175 53.8545 29.5067 59.4639 36.4109 59.6082C43.3151 59.7526 48.5415 53.194 50.2917 49.8966C47.5501 51.549 40.8681 54.9484 36.073 55.3269Z" stroke="black" stroke-width="2" stroke-linejoin="round"/>
<path d="M43.284 37.5255C43.6296 34.6262 46.4568 29.6929 55.0014 33.1542" stroke="black" stroke-width="2" stroke-linecap="round" stroke-linejoin="round"/>
<path d="M32.0775 37.454C30.9959 34.6674 27.2014 30.2567 20.6756 34.9075" stroke="black" stroke-width="2" stroke-linecap="round" stroke-linejoin="round"/>
<path d="M37.159 35.4246C35.0784 38.1736 31.156 44.5144 32.1113 47.8854C33.0667 51.2564 37.7371 50.0262 39.9529 48.9897" stroke="black" stroke-width="2" stroke-linecap="round"/>
<path d="M67.7779 31.2848C64.8756 29.446 62.3172 34.875 61.4008 37.8193L62.0767 46.3821C64.9534 46.4423 70.9954 45.8505 72.1491 43.0023C73.5913 39.4421 71.4057 33.5832 67.7779 31.2848Z" fill="#FFE9C8" stroke="black" stroke-width="2" stroke-linejoin="round"/>
<path d="M13.5627 32.1177C15.6718 32.6405 16.4243 35.6254 16.537 37.0525L13.9905 48.4544C1.12412 38.269 10.9263 31.4641 13.5627 32.1177Z" fill="#FFE9C8" stroke="black" stroke-width="2" stroke-linejoin="round"/>
<path d="M63.2772 38.7185C63.8498 37.0006 65.5104 34.4238 67.5719 37.8595C69.6333 41.2953 66.7129 42.1542 64.9951 42.1542" stroke="black" stroke-linecap="round" stroke-linejoin="round"/>
<path d="M14.3181 38.7179C13.4591 37 8.30555 38.7179 12.6002 43.0125" stroke="black" stroke-linecap="round" stroke-linejoin="round"/>
<path d="M38.4203 6.4825C46.5035 5.11038 53.5763 11.0562 56.1023 14.2007C68.2271 15.5724 65.0836 29.0654 61.9963 35.6405C60.6491 30.8381 51.8923 23.9203 47.6823 21.0617C46.3351 21.0617 44.8756 24.492 44.3143 26.2072C42.2935 25.5211 41.2269 23.0627 40.9463 21.9193C38.2519 21.2332 35.8943 28.494 35.0523 32.2102C32.3579 30.152 31.6843 25.0637 31.6843 22.7769C27.6427 22.0908 19.8963 31.0667 16.5283 35.6405C10.6343 16.7738 28.3163 8.19765 38.4203 6.4825Z" fill="black"/>
<ellipse cx="23.8522" cy="43.3669" rx="3.86318" ry="3.09055" fill="#FCC5A7"/>
<ellipse cx="51.6671" cy="43.3669" rx="3.86318" ry="3.09055" fill="#FCC5A7"/>
</g>
</svg>
