<svg width="24" height="25" viewBox="0 0 24 25" fill="none" xmlns="http://www.w3.org/2000/svg">
<path fill-rule="evenodd" clip-rule="evenodd" d="M15.1225 17.0856C11.4669 20.0135 6.11579 19.783 2.72702 16.3942C-0.909006 12.7582 -0.909006 6.86305 2.72702 3.22702C6.36304 -0.409007 12.2582 -0.409006 15.8942 3.22702C19.283 6.61579 19.5134 11.9669 16.5856 15.6225L23.697 22.734C24.101 23.138 24.101 23.793 23.697 24.197C23.293 24.601 22.638 24.601 22.234 24.197L15.1225 17.0856ZM4.19004 14.9312C1.36202 12.1032 1.36202 7.51807 4.19004 4.69004C7.01806 1.86202 11.6032 1.86202 14.4312 4.69004C17.2571 7.51599 17.2592 12.0965 14.4374 14.925C14.4353 14.927 14.4333 14.9291 14.4312 14.9312C14.4291 14.9333 14.427 14.9353 14.425 14.9374C11.5965 17.7592 7.01599 17.7572 4.19004 14.9312Z" fill="#415A68"/>
</svg>
